<?xml version="1.0"?>
<svg width="20px" height="20px" viewBox="0 0 20 20" version="1.1" xmlns="http://www.w3.org/2000/svg" xmlns:xlink="http://www.w3.org/1999/xlink">
    <g fill="#899CA9" class="svg-build">
        <path d="M15.134849,16.134849 C16.8862895,14.6673409 18,12.463731 18,10 C18,6.64262228 15.9318304,3.76829169 13,2.58151701 L13,5.99963376 C14.2144467,6.91184006 15,8.36418213 15,10 C15,11.635724 14.2145369,13.0879932 13.0002092,14.0002091 L11,12 L11,18 L17,18 L15.134849,16.134849 L15.134849,16.134849 Z M4.865151,3.865151 C3.1137105,5.33265912 2,7.53626898 2,10 C2,13.3573777 4.0681696,16.2317083 7,17.418483 L7,14.0003663 C5.7855533,13.08816 5,11.6358179 5,10 C5,8.36427603 5.7854631,6.91200681 6.9997909,5.99979086 L9,8 L9,2 L3,2 L4.865151,3.865151 L4.865151,3.865151 Z" class="svg-shape"/>
    </g>
</svg>