<?xml version="1.0"?>
<svg width="12px" height="12px" viewBox="0 0 12 12" version="1.1" xmlns="http://www.w3.org/2000/svg" xmlns:xlink="http://www.w3.org/1999/xlink">
    <g fill="#899CA9" class="svg-error-mini">
        <path d="M5.44116227,9.34364132 C4.35290551,10.3813012 3.39228075,11.2828616 2.81648475,11.7740606 C1.09342874,13.2439624 -1.49115603,11.0391096 1.09342874,8.83425691 C1.80788474,8.22477023 2.58817275,7.5029634 3.37969875,6.74645797 C2.91175875,6.15937439 2.45723325,5.58403416 2.05182074,5.05168723 C0.37853323,2.85449554 2.8884645,1.38970105 4.56175126,3.58689275 C4.83891076,3.95083047 5.13902402,4.33486213 5.45068577,4.72900281 C6.78984903,3.4100057 8.01801904,2.19208871 8.84718229,1.48474781 C10.5702383,0.0148458941 13.1548231,2.21969869 11.4317663,3.68960052 C10.6380938,4.3666652 9.11326055,5.82340191 7.53083928,7.34154728 C8.41222129,8.46033383 9.18496505,9.48401799 9.58161305,10.1784679 C10.4182561,11.6432624 7.90832554,13.1080568 7.07168178,11.6432624 C6.73954203,11.0617525 6.14368952,10.2493887 5.44116227,9.34364132 L5.44116227,9.34364132 Z" class="svg-shape-2"/>
    </g>
</svg>