<?xml version="1.0"?>
<svg width="16px" height="16px" viewBox="0 0 16 16" version="1.1" xmlns="http://www.w3.org/2000/svg" xmlns:xlink="http://www.w3.org/1999/xlink">
    <g fill="#899CA9" class="svg-failed">
        <path d="M7.254883,11.124855 C5.803874,12.5084015 4.523041,13.710482 3.755313,14.365414 C1.457905,16.3252831 -1.988208,13.3854793 1.457905,10.4456758 C2.410513,9.6330269 3.450897,8.6706178 4.506265,7.6619439 C3.882345,6.8791658 3.276311,6.1120455 2.735761,5.4022496 C0.504711,2.4726607 3.851286,0.5196014 6.082335,3.4491903 C6.451881,3.9344406 6.852032,4.4464828 7.267581,4.9720037 C9.053132,3.2133409 10.690692,1.5894516 11.796243,0.6463304 C14.093651,-1.3135388 17.539764,1.6262649 15.242355,3.586134 C14.184125,4.4888869 12.151014,6.4312025 10.041119,8.4553963 C11.216295,9.9471117 12.24662,11.3120239 12.775484,12.2379571 C13.891008,14.1910164 10.544434,16.1440756 9.428909,14.1910164 C8.986056,13.4156699 8.191586,12.3325182 7.254883,11.124855 L7.254883,11.124855 Z" class="svg-shape"/>
    </g>
</svg>