<?xml version="1.0"?>
<svg width="20px" height="20px" viewBox="0 0 20 20" version="1.1" xmlns="http://www.w3.org/2000/svg" xmlns:xlink="http://www.w3.org/1999/xlink">
    <g fill="#899CA9" class="svg-gear">
        <path d="M18,8.92260194 L16.8356893,8.50854369 C16.391767,8.35067961 16.0346019,8.01168932 15.8541748,7.57646602 C15.6730097,7.13965049 15.6856699,6.6471068 15.888466,6.22050485 L16.4186796,5.10500971 L14.8950291,3.58135922 L13.7796893,4.11153398 C13.3533204,4.31421359 12.8600777,4.32691262 12.4240388,4.14605825 C11.9879612,3.96528155 11.6493981,3.60862136 11.4914563,3.16438835 L11.0773204,2 L8.92260194,2 L8.50854369,3.16431068 C8.35067961,3.60823301 8.01168932,3.96535922 7.57646602,4.14582524 C7.13961165,4.32699029 6.64702913,4.31429126 6.22038835,4.11149515 L5.10493204,3.58128155 L3.58128155,5.10493204 L4.11149515,6.22031068 C4.31417476,6.64667961 4.32683495,7.13996117 4.14601942,7.57603883 C3.96524272,8.01203883 3.60854369,8.35056311 3.16438835,8.50850485 L2,8.92260194 L2,11.0773592 L3.16427184,11.4913786 C3.60819417,11.6492427 3.96532039,11.988233 4.14578641,12.4234175 C4.32695146,12.8603107 4.31429126,13.352932 4.11149515,13.779534 L3.58124272,14.8949903 L5.1048932,16.4186408 L6.22027184,15.888466 C6.64664078,15.6857864 7.13992233,15.6730874 7.57596117,15.8539417 C8.012,16.0347184 8.35048544,16.3913786 8.50846602,16.8355728 L8.92260194,18 L11.0773204,18 L11.4887767,16.8431068 C11.6481165,16.3950291 11.9900583,16.0344078 12.4292039,15.8518447 C12.8618641,15.6718835 13.3499029,15.6841942 13.7725825,15.8851262 L14.8949903,16.4186408 L16.4186408,14.8949903 L15.8881553,13.7789903 C15.6856699,13.3530097 15.6730485,12.8601942 15.8537476,12.4245437 C16.0347184,11.9880777 16.391767,11.6492816 16.8363883,11.4911456 L18,11.0773592 L18,8.92260194 Z M10.0000529,14 C7.79088514,14 6,12.209156 6,10.0000265 C6,7.790897 7.79088514,6 10.0000529,6 C12.2091678,6 14,7.790897 14,10.0000265 C14,12.209156 12.2091678,14 10.0000529,14 L10.0000529,14 Z" class="svg-shape"/>
    </g>
</svg>