<?xml version="1.0"?>
<svg width="20px" height="20px" viewBox="0 0 20 20" version="1.1" xmlns="http://www.w3.org/2000/svg" xmlns:xlink="http://www.w3.org/1999/xlink">
    <g fill="#899CA9" class="svg-gear-xmini">
        <path d="M15,9.32662621 L14.2723058,9.06783981 C13.9948544,8.96917476 13.7716262,8.75730583 13.6588592,8.48529126 C13.5456311,8.21228155 13.5535437,7.90444175 13.6802913,7.63781553 L14.0116748,6.94063107 L13.0593932,5.98834951 L12.3623058,6.31970874 C12.0958252,6.4463835 11.7875485,6.45432039 11.5150243,6.34128641 C11.2424757,6.22830097 11.0308738,6.00538835 10.9321602,5.72774272 L10.6733252,5 L9.32662621,5 L9.06783981,5.72769417 C8.96917476,6.00514563 8.75730583,6.22834951 8.48529126,6.34114078 C8.21225728,6.45436893 7.9043932,6.44643204 7.63774272,6.31968447 L6.94058252,5.98830097 L5.98830097,6.94058252 L6.31968447,7.63769417 C6.44635922,7.90417476 6.45427184,8.21247573 6.34126214,8.48502427 C6.2282767,8.75752427 6.00533981,8.96910194 5.72774272,9.06781553 L5,9.32662621 L5,10.6733495 L5.7276699,10.9321117 C6.00512136,11.0307767 6.22832524,11.2426456 6.3411165,11.5146359 C6.45434466,11.7876942 6.44643204,12.0955825 6.31968447,12.3622087 L5.9882767,13.0593689 L6.94055825,14.0116505 L7.6376699,13.6802913 C7.90415049,13.5536165 8.21245146,13.5456796 8.48497573,13.6587136 C8.7575,13.771699 8.9690534,13.9946117 9.06779126,14.272233 L9.32662621,15 L10.6733252,15 L10.9304854,14.2769417 C11.0300728,13.9968932 11.2437864,13.7715049 11.5182524,13.6574029 C11.788665,13.5449272 12.0936893,13.5526214 12.3578641,13.6782039 L13.0593689,14.0116505 L14.0116505,13.0593689 L13.6800971,12.3618689 C13.5535437,12.0956311 13.5456553,11.7876214 13.6585922,11.5153398 C13.771699,11.2425485 13.9948544,11.030801 14.2727427,10.931966 L15,10.6733495 L15,9.32662621 Z M10.0000265,12 C8.89544257,12 8,11.104578 8,10.0000132 C8,8.8954485 8.89544257,8 10.0000265,8 C11.1045839,8 12,8.8954485 12,10.0000132 C12,11.104578 11.1045839,12 10.0000265,12 L10.0000265,12 Z" class="svg-shape"/>
    </g>
</svg>