<?xml version="1.0"?>
<svg width="16px" height="16px" viewBox="0 0 16 16" version="1.1" xmlns="http://www.w3.org/2000/svg" xmlns:xlink="http://www.w3.org/1999/xlink">
    <g fill="#899CA9" class="svg-gear-mini">
        <path d="M15,7.0572767 L13.9812282,6.69497573 C13.5927961,6.55684466 13.2802767,6.26022816 13.1224029,5.87940777 C12.9638835,5.49719417 12.9749612,5.06621845 13.1524078,4.69294175 L13.6163447,3.7168835 L12.2831505,2.38368932 L11.3072282,2.84759223 C10.9341553,3.02493689 10.502568,3.03604854 10.121034,2.87780097 C9.73946602,2.71962136 9.4432233,2.40754369 9.30502427,2.01883981 L8.94265534,1 L7.0572767,1 L6.69497573,2.01877184 C6.55684466,2.40720388 6.26022816,2.71968932 5.87940777,2.87759709 C5.49716019,3.0361165 5.06615049,3.02500485 4.69283981,2.84755825 L3.71681553,2.38362136 L2.38362136,3.71681553 L2.84755825,4.69277184 C3.02490291,5.06584466 3.03598058,5.49746602 2.87776699,5.87903398 C2.71958738,6.26053398 2.40747573,6.55674272 2.01883981,6.69494175 L1,7.0572767 L1,8.94268932 L2.01873786,9.30495631 C2.4071699,9.44308738 2.71965534,9.73970388 2.87756311,10.1204903 C3.03608252,10.5027718 3.02500485,10.9338155 2.84755825,11.3070922 L2.38358738,12.2831165 L3.71678155,13.6163107 L4.69273786,13.1524078 C5.06581068,12.9750631 5.49743204,12.9639515 5.87896602,13.122199 C6.2605,13.2803786 6.55667476,13.5924563 6.69490777,13.9811262 L7.0572767,15 L8.94265534,15 L9.30267961,13.9877184 C9.44210194,13.5956505 9.74130097,13.2801068 10.1255534,13.1203641 C10.5041311,12.9628981 10.931165,12.9736699 11.3010097,13.1494854 L12.2831165,13.6163107 L13.6163107,12.2831165 L13.1521359,11.3066165 C12.9749612,10.9338835 12.9639175,10.5026699 13.1220291,10.1214757 C13.2803786,9.73956796 13.5927961,9.44312136 13.9818398,9.30475243 L15,8.94268932 L15,7.0572767 Z M8.00005295,12 C5.79088514,12 4,10.209156 4,8.00002647 C4,5.790897 5.79088514,4 8.00005295,4 C10.2091678,4 12,5.790897 12,8.00002647 C12,10.209156 10.2091678,12 8.00005295,12 L8.00005295,12 Z" class="svg-shape"/>
    </g>
</svg>