<?xml version="1.0"?>
<svg width="20px" height="20px" viewBox="0 0 20 20" version="1.1" xmlns="http://www.w3.org/2000/svg" xmlns:xlink="http://www.w3.org/1999/xlink">
    <g fill="#899CA9" class="svg-onoff">
        <path d="M14,3.07025746 C16.3912055,4.45349508 18,7.03887039 18,10 C18,14.4182782 14.4182782,18 10,18 C5.58172178,18 2,14.4182782 2,10 C2,7.03887039 3.60879446,4.45349508 6,3.07025746 L6,6.99951243 C5.37208948,7.83525646 5,8.8741751 5,10 C5,12.7614239 7.23857611,15 10,15 C12.7614239,15 15,12.7614239 15,10 C15,8.8741751 14.6279105,7.83525646 14,6.99951243 L14,3.07025746 L14,3.07025746 Z M9,1 L9,9 L11,9 L11,1 L9,1 L9,1 Z" class="svg-shape"/>
    </g>
</svg>