<?xml version="1.0"?>
<svg width="12px" height="12px" viewBox="0 0 12 12" version="1.1" xmlns="http://www.w3.org/2000/svg" xmlns:xlink="http://www.w3.org/1999/xlink">
    <g fill="#899CA9" class="svg-pending-mini">
        <path d="M12,6 C12,2.6862915 9.3137085,0 6,0 C2.6862915,0 0,2.6862915 0,6 C0,9.3137085 2.6862915,12 6,12 C9.3137085,12 12,9.3137085 12,6 Z M2,6 C2,3.790861 3.790861,2 6,2 C8.209139,2 10,3.790861 10,6 C10,8.209139 8.209139,10 6,10 C3.790861,10 2,8.209139 2,6 Z M6,6 L3,4 L3,5 C3,5 5.58977059,7 6,7 L7,7 L7,4 L6,4 L6,6 Z" class="svg-Path-117"/>
    </g>
</svg>