<?xml version="1.0"?>
<svg width="12px" height="12px" viewBox="0 0 12 12" version="1.1" xmlns="http://www.w3.org/2000/svg" xmlns:xlink="http://www.w3.org/1999/xlink">
    <g fill="#899CA9" class="svg-reload-mini">
        <path d="M10,11 C11.2044925,9.4062358 12,7.69119557 12,6 C12,3.16070415 10.522736,0.923650929 8,4.4408921e-15 L8,3 C9.29603336,3.37023276 9.85714286,4.50057125 10,6 C9.85714286,7.04676874 9.29609779,8.17705052 8,9 L7,7 L7,12 L11,12 L10,11 L10,11 Z M2,1 C0.7955075,2.59376421 0,4.30880442 0,6 C0,8.83929583 1.477264,11.0763491 4,12 L4,9 C2.70396664,8.62976728 2.14285714,7.49942877 2,6 C2.14285714,4.95323128 2.70390221,3.82294948 4,3 L5,5 L5,4.4408921e-15 L1,4.4408921e-15 L2,1 L2,1 Z" class="svg-shape-2"/>
    </g>
</svg>