<?xml version="1.0"?>
<svg width="20px" height="20px" viewBox="0 0 20 20" version="1.1" xmlns="http://www.w3.org/2000/svg" xmlns:xlink="http://www.w3.org/1999/xlink">
    <g fill="#899CA9" class="svg-run">
        <path d="M13.9553688,16.9553688 C12.788817,17.6201919 11.438763,18 10,18 C5.58172178,18 2,14.4182782 2,10 C2,5.58172178 5.58172178,2 10,2 C11.438763,2 12.788817,2.37980812 13.9553688,3.04463118 L11.7026251,5.29737486 C11.1711984,5.10492873 10.5978529,5 10,5 C7.23857611,5 5,7.23857611 5,10 C5,12.7614239 7.23857611,15 10,15 C10.5978529,15 11.1711984,14.8950713 11.7026251,14.7026251 L13.9553688,16.9553688 L13.9553688,16.9553688 Z M15,5 L13,7 L16,10 L13,13 L15,15 L20,10 L15,5 Z" class="svg-shape"/>
    </g>
</svg>