<?xml version="1.0"?>
<svg width="100px" height="100px" viewBox="0 0 100 100" version="1.1" xmlns="http://www.w3.org/2000/svg" xmlns:xlink="http://www.w3.org/1999/xlink">
    <g fill="#899CA9" class="svg-screen-help">
        <path d="M100,50 C100,22.3857625 77.6142375,0 50,0 C22.3857625,0 0,22.3857625 0,50 C0,77.6142375 22.3857625,100 50,100 C77.6142375,100 100,77.6142375 100,50 Z M5,50 C5,25.1471863 25.1471863,5 50,5 C74.8528137,5 95,25.1471863 95,50 C95,74.8528137 74.8528137,95 50,95 C25.1471863,95 5,74.8528137 5,50 Z" class="svg-Oval-5"/>
        <path d="M47.6328125,64.2460938 C47.6621095,60.4081839 47.9843719,57.7348708 48.5996094,56.2260742 C49.2148468,54.7172776 50.884752,52.7177859 53.609375,50.2275391 C56.7734533,46.9462727 59.0805592,44.1997181 60.5307617,41.987793 C61.9809643,39.7758678 62.7060547,36.9707201 62.7060547,33.5722656 C62.7060547,29.8222469 61.7099709,26.9218853 59.7177734,24.8710938 C57.725576,22.8203022 54.8838075,21.7949219 51.1923828,21.7949219 C47.7353343,21.7949219 44.952159,22.7983298 42.8427734,24.8051758 C40.7333879,26.8120218 39.6640626,29.5292797 39.6347656,32.9570312 L34.7128906,32.9570312 L34.625,32.6933594 C34.5371089,27.8593508 36.0605312,24.0507952 39.1953125,21.2675781 C42.3300938,18.4843611 46.3290772,17.0927734 51.1923828,17.0927734 C56.4365497,17.0927734 60.5453953,18.5722508 63.519043,21.53125 C66.4926906,24.4902492 67.9794922,28.4892326 67.9794922,33.5283203 C67.9794922,37.4834182 67.0053808,40.9916839 65.0571289,44.0532227 C63.108877,47.1147614 60.3476741,50.315413 56.7734375,53.6552734 C54.9570222,55.2080156 53.8510762,56.6581964 53.4555664,58.0058594 C53.0600566,59.3535224 52.8623047,61.4335797 52.8623047,64.2460938 L47.6328125,64.2460938 Z M53.5654297,82 L47.4570312,82 L47.4570312,75.2324219 L53.5654297,75.2324219 L53.5654297,82 Z" class="svg-?"/>
    </g>
</svg>