<?xml version="1.0"?>
<svg width="100px" height="100px" viewBox="0 0 100 100" version="1.1" xmlns="http://www.w3.org/2000/svg" xmlns:xlink="http://www.w3.org/1999/xlink">
    <g fill="#899CA9" class="svg-screen-run">
        <path d="M100,50 C100,22.3857625 77.6142375,0 50,0 C22.3857625,0 0,22.3857625 0,50 C0,77.6142375 22.3857625,100 50,100 C77.6142375,100 100,77.6142375 100,50 Z M5,50 C5,25.1471863 25.1471863,5 50,5 C74.8528137,5 95,25.1471863 95,50 C95,74.8528137 74.8528137,95 50,95 C25.1471863,95 5,74.8528137 5,50 Z" class="svg-Oval-5"/>
        <path d="M70.8466336,51.6339357 L70.8466336,48.3660643 L36.8466336,72.3660643 C35.9442358,73.0030509 35.7290776,74.2509686 36.3660643,75.1533664 C37.0030509,76.0557642 38.2509686,76.2709224 39.1533664,75.6339357 L73.1533664,51.6339357 C74.2822112,50.8371041 74.2822112,49.1628959 73.1533664,48.3660643 L39.1533664,24.3660643 C38.2509686,23.7290776 37.0030509,23.9442358 36.3660643,24.8466336 C35.7290776,25.7490314 35.9442358,26.9969491 36.8466336,27.6339357 L70.8466336,51.6339357 Z" class="svg-Path-108"/>
    </g>
</svg>