<?xml version="1.0"?>
<svg width="100px" height="100px" viewBox="0 0 100 100" version="1.1" xmlns="http://www.w3.org/2000/svg" xmlns:xlink="http://www.w3.org/1999/xlink">
    <g fill="#899CA9" class="svg-screen-fine">
        <path d="M100,50 C100,22.3857625 77.6142375,0 50,0 C22.3857625,0 0,22.3857625 0,50 C0,77.6142375 22.3857625,100 50,100 C77.6142375,100 100,77.6142375 100,50 Z M5,50 C5,25.1471863 25.1471863,5 50,5 C74.8528137,5 95,25.1471863 95,50 C95,74.8528137 74.8528137,95 50,95 C25.1471863,95 5,74.8528137 5,50 Z" class="svg-Oval-5"/>
        <path d="M86.5624458,57.9142136 C87.3434944,57.133165 87.3434944,55.866835 86.5624458,55.0857864 C85.7813973,54.3047379 84.5150673,54.3047379 83.7340187,55.0857864 C65.379377,73.4404281 35.620623,73.4404281 17.2659813,55.0857864 C16.4849327,54.3047379 15.2186027,54.3047379 14.4375542,55.0857864 C13.6565056,55.866835 13.6565056,57.133165 14.4375542,57.9142136 C34.354293,77.8309524 66.645707,77.8309524 86.5624458,57.9142136 Z" class="svg-Oval-6"/>
    </g>
</svg>