<?xml version="1.0"?>
<svg width="100px" height="100px" viewBox="0 0 100 100" version="1.1" xmlns="http://www.w3.org/2000/svg" xmlns:xlink="http://www.w3.org/1999/xlink">
    <g fill="#899CA9" class="svg-screen-no-data">
        <path d="M100,50 C100,22.3857625 77.6142375,0 50,0 C22.3857625,0 0,22.3857625 0,50 C0,77.6142375 22.3857625,100 50,100 C77.6142375,100 100,77.6142375 100,50 Z M5,50 C5,25.1471863 25.1471863,5 50,5 C74.8528137,5 95,25.1471863 95,50 C95,74.8528137 74.8528137,95 50,95 C25.1471863,95 5,74.8528137 5,50 Z" class="svg-Oval-5"/>
        <path d="M23.6906025,27.5190296 L72.8104067,76.6388339 L74.5781737,78.4066008 L78.1137076,74.8710669 L76.3459406,73.1032999 L27.2261364,23.9834957 L25.4583694,22.2157288 L21.9228355,25.7512627 L23.6906025,27.5190296 L23.6906025,27.5190296 Z" class="svg-Line"/>
        <path d="M26.5185295,76.9261417 L76.9261417,26.5185295 L78.6939086,24.7507626 L75.1583747,21.2152287 L73.3906078,22.9829956 L22.9829956,73.3906078 L21.2152287,75.1583747 L24.7507626,78.6939086 L26.5185295,76.9261417" class="svg-Line"/>
    </g>
</svg>