<?xml version="1.0"?>
<svg width="100px" height="100px" viewBox="0 0 100 100" version="1.1" xmlns="http://www.w3.org/2000/svg" xmlns:xlink="http://www.w3.org/1999/xlink">
    <g fill="#899CA9" class="svg-screen-code">
        <path d="M100,50 C100,22.3857625 77.6142375,0 50,0 C22.3857625,0 0,22.3857625 0,50 C0,77.6142375 22.3857625,100 50,100 C77.6142375,100 100,77.6142375 100,50 Z M5,50 C5,25.1471863 25.1471863,5 50,5 C74.8528137,5 95,25.1471863 95,50 C95,74.8528137 74.8528137,95 50,95 C25.1471863,95 5,74.8528137 5,50 Z" class="svg-Oval-5"/>
        <g transform="translate(28.000000, 24.000000)" class="svg-shape-2-+-Path-2">
            <path d="M0,13.5035405 L0,53 L44,53 L44,0 L14.23719,0 L0,13.5035405 Z M4,14.1588068 L4,49 L40,49 L40,4 L15.23719,4 L4,14.1588068 Z" class="svg-shape-2"/>
            <path d="M13.0619838,4.03344334 L13.0619836,13.0105395 L4.06521689,13.0105399 L0.137024431,16.9301438 L16.9883525,16.9301438 L16.9883524,0.115659243 L13.0619838,4.03344334 Z" class="svg-Path"/>
        </g>
    </g>
</svg>