<?xml version="1.0"?>
<svg width="100px" height="100px" viewBox="0 0 100 100" version="1.1" xmlns="http://www.w3.org/2000/svg" xmlns:xlink="http://www.w3.org/1999/xlink">
    <g fill="#899CA9" class="svg-screen-actor">
        <path d="M100,50 C100,22.3857625 77.6142375,0 50,0 C22.3857625,0 0,22.3857625 0,50 C0,77.6142375 22.3857625,100 50,100 C77.6142375,100 100,77.6142375 100,50 Z M5,50 C5,25.1471863 25.1471863,5 50,5 C74.8528137,5 95,25.1471863 95,50 C95,74.8528137 74.8528137,95 50,95 C25.1471863,95 5,74.8528137 5,50 Z" class="svg-Oval-5"/>
        <path d="M65,68.5 C65,63.2532949 60.7467051,59 55.5,59 C50.2532949,59 46,63.2532949 46,68.5 C46,73.7467051 50.2532949,78 55.5,78 C60.7467051,78 65,73.7467051 65,68.5 Z M50,68.5 C50,65.4624339 52.4624339,63 55.5,63 C58.5375661,63 61,65.4624339 61,68.5 C61,71.5375661 58.5375661,74 55.5,74 C52.4624339,74 50,71.5375661 50,68.5 Z M40,40.5 C40,35.2532949 35.7467051,31 30.5,31 C25.2532949,31 21,35.2532949 21,40.5 C21,45.7467051 25.2532949,50 30.5,50 C35.7467051,50 40,45.7467051 40,40.5 Z M25,40.5 C25,37.4624339 27.4624339,35 30.5,35 C33.5375661,35 36,37.4624339 36,40.5 C36,43.5375661 33.5375661,46 30.5,46 C27.4624339,46 25,43.5375661 25,40.5 Z M80,40.5 C80,35.2532949 75.7467051,31 70.5,31 C65.2532949,31 61,35.2532949 61,40.5 C61,45.7467051 65.2532949,50 70.5,50 C75.7467051,50 80,45.7467051 80,40.5 Z M65,40.5 C65,37.4624339 67.4624339,35 70.5,35 C73.5375661,35 76,37.4624339 76,40.5 C76,43.5375661 73.5375661,46 70.5,46 C67.4624339,46 65,43.5375661 65,40.5 Z M62.5217285,43 L64.5217285,43 L64.5217285,39 L62.5217285,39 L39.5,39 L37.5,39 L37.5,43 L39.5,43 L62.5217285,43 Z M48.2257992,64.0542263 L51.0542263,61.2257992 L34.9142136,45.0857864 L32.0857864,47.9142136 L48.2257992,64.0542263 Z" class="svg-Oval-6"/>
    </g>
</svg>