<?xml version="1.0"?>
<svg width="17px" height="17px" viewBox="0 0 17 17" version="1.1" xmlns="http://www.w3.org/2000/svg" xmlns:xlink="http://www.w3.org/1999/xlink">
    <g fill="#899CA9" class="svg-search-mini">
        <path d="M0,5.94367535 C0,9.27394127 2.67666712,11.9854205 5.98012532,11.9999409 C9.28285733,12.014458 11.9602506,9.35439522 11.9602506,6.05690547 C11.9602506,2.76014056 9.28358352,0.048668714 5.98012532,0.000640001507 C2.6773933,-0.0473781531 0,2.61267717 0,5.94367535 L0,5.94367535 Z M6.00000001,2.00033382 C8.20962475,2.02863001 10,3.83629157 10,6.03787283 C10,8.23993815 8.20913902,10.0133251 6.00000001,9.99992455 C3.79037528,9.98652111 2,8.17885625 2,5.96238554 C2,3.74542749 3.79086101,1.97204385 6.00000001,2.00033382 L6.00000001,2.00033382 Z M14.8021052,13.5669538 C15.7325584,14.4955332 15.7341646,15.0051962 14.7987515,15.9341901 C13.8652419,16.862525 13.3482357,16.8650533 12.4146748,15.9333747 L10.6980233,14.2152016 C9.76756995,13.2818321 9.76596375,12.7636294 10.7013769,11.8334004 C11.6348866,10.9062956 12.1518927,10.9122919 13.0854536,11.8487808 L14.8021052,13.5669538 Z" class="svg-shape"/>
    </g>
</svg>