<?xml version="1.0"?>
<svg width="79px" height="16px" viewBox="0 0 79 16" version="1.1" xmlns="http://www.w3.org/2000/svg" xmlns:xlink="http://www.w3.org/1999/xlink">
    <g fill="#899CA9" class="svg-typesafe">
        <path d="M17,4 C17.63941,4 18.006035,3.57008 18,3 L18,1 C17.993965,0.42992 17.638022,0 17,0 L13,0 C12.361978,0 11.996077,0.42992 12,1 C12,1 12.001607,2.23536 12,2 C12,2 12.131237,3 11,3 L6.996233,3.04 C6.357065,3.04 5.998069,3.42992 6,4 L6,5 C5.913806,5.28736 5.737969,6 5,6 L1,6 C0.359624,6 0,6.65568 0,7.22576 L0,7 L0,9 C0,9.57008 0.358297,10 1,10 C1,10 4.955847,9.9995489 5,10 C6.042567,10.0106522 5.996754,10.0418575 6,11 C6.003488,12.02144 6.099914,12 5,12 L1,12 C0.357331,12 0,12.42992 0,13 L0,15 C0,15.57008 0.355943,16 1,16 L5,16 C5.644057,16 6.002112,15.57008 6,15 L6,14 C5.997667,13.37024 5.726611,13.09136 6,13 L11,13 C11.64291,13 12.004089,12.57024 12,12 L12,11 C11.992933,10.01456 11.879406,10 13,10 L17,10 C17.641703,10 18.006035,9.57008 18,9 L18,7 C17.993965,6.42992 17.640376,6 17,6 L13,6 C11.968713,6 12.007381,6.02544 12,5 C12.008015,4.4686415 12,4 13,4 M6.002706,8.2480237 L6.000072,7.7519971 C5.996066,6.9976646 6.156635,7.0000208 7.381176,7.0000208 L10.602087,7.0000208 C11.905109,7.0000208 11.987038,6.98514 11.9946,7.7519971 L11.999492,8.2480237 C12.006278,8.9361365 11.95747,8.9961558 11.076906,9 C9.571499,8.9999994 7.825696,8.9999994 6.854503,8.9999994" class="svg-shape"/>
        <path d="M22.112,2.004 L30.204,2.004 L30.204,3.516 L27.026,3.516 L27.026,12 L25.276,12 L25.276,3.516 L22.112,3.516 L22.112,2.004 L22.112,2.004 Z M28.79,4.762 L30.54,4.762 L32.43,10.166 L32.458,10.166 L34.292,4.762 L35.958,4.762 L33.144,12.392 C33.013333,12.7186683 32.885001,13.0313318 32.759,13.33 C32.632999,13.6286682 32.479001,13.8923322 32.297,14.121 C32.114999,14.3496678 31.888668,14.531666 31.618,14.667 C31.347332,14.802334 31.002002,14.87 30.582,14.87 C30.208665,14.87 29.840002,14.8420003 29.476,14.786 L29.476,13.442 C29.606667,13.4606668 29.732666,13.4816665 29.854,13.505 C29.975334,13.5283335 30.101333,13.54 30.232,13.54 C30.418668,13.54 30.572666,13.5166669 30.694,13.47 C30.815334,13.4233331 30.915666,13.3556671 30.995,13.267 C31.074334,13.1783329 31.142,13.0733339 31.198,12.952 C31.254,12.8306661 31.305333,12.6906675 31.352,12.532 L31.534,11.972 L28.79,4.762 L28.79,4.762 Z M36.896,4.762 L38.408,4.762 L38.408,5.742 L38.436,5.742 C38.660001,5.3219979 38.972665,5.0210009 39.374,4.839 C39.775335,4.6569991 40.209331,4.566 40.676,4.566 C41.245336,4.566 41.742331,4.6663323 42.167,4.867 C42.591669,5.0676677 42.943999,5.3429983 43.224,5.693 C43.504001,6.0430018 43.713999,6.451331 43.854,6.918 C43.994001,7.384669 44.064,7.8839973 44.064,8.416 C44.064,8.9013358 44.001001,9.3726644 43.875,9.83 C43.748999,10.2873356 43.557668,10.6909983 43.301,11.041 C43.044332,11.3910018 42.720002,11.6709989 42.328,11.881 C41.935998,12.0910011 41.474003,12.196 40.942,12.196 C40.708665,12.196 40.475334,12.1750002 40.242,12.133 C40.008666,12.0909998 39.784668,12.0233338 39.57,11.93 C39.355332,11.8366662 39.157001,11.7176674 38.975,11.573 C38.792999,11.4283326 38.641334,11.258001 38.52,11.062 L38.492,11.062 L38.492,14.674 L36.896,14.674 L36.896,4.762 L36.896,4.762 Z M42.468,8.388 C42.468,8.0613317 42.426,7.7440015 42.342,7.436 C42.258,7.1279985 42.132001,6.8550012 41.964,6.617 C41.795999,6.3789988 41.586001,6.1876674 41.334,6.043 C41.081999,5.8983326 40.792668,5.826 40.466,5.826 C39.793997,5.826 39.287668,6.059331 38.947,6.526 C38.606332,6.992669 38.436,7.6133295 38.436,8.388 C38.436,8.7520018 38.480333,9.0903318 38.569,9.403 C38.657667,9.7156682 38.790666,9.9839989 38.968,10.208 C39.145334,10.4320011 39.357665,10.6093327 39.605,10.74 C39.852335,10.8706673 40.139332,10.936 40.466,10.936 C40.830002,10.936 41.137999,10.8613341 41.39,10.712 C41.642001,10.5626659 41.849666,10.3690012 42.013,10.131 C42.176334,9.8929988 42.293,9.6223349 42.363,9.319 C42.433,9.0156652 42.468,8.7053349 42.468,8.388 L42.468,8.388 Z M46.654,8.794 C46.654,9.0740014 46.693666,9.3446654 46.773,9.606 C46.852334,9.8673346 46.971333,10.095999 47.13,10.292 C47.288667,10.488001 47.489332,10.6443328 47.732,10.761 C47.974668,10.8776673 48.263998,10.936 48.6,10.936 C49.066669,10.936 49.442332,10.8356677 49.727,10.635 C50.011668,10.4343323 50.223999,10.1333353 50.364,9.732 L51.876,9.732 C51.792,10.124002 51.647334,10.4739985 51.442,10.782 C51.236666,11.0900015 50.989335,11.3489989 50.7,11.559 C50.410665,11.769001 50.086335,11.9276661 49.727,12.035 C49.367665,12.1423339 48.992002,12.196 48.6,12.196 C48.030664,12.196 47.526669,12.1026676 47.088,11.916 C46.649331,11.7293324 46.278335,11.4680017 45.975,11.132 C45.671665,10.7959983 45.443001,10.394669 45.289,9.928 C45.134999,9.461331 45.058,8.9480028 45.058,8.388 C45.058,7.8746641 45.139666,7.3870023 45.303,6.925 C45.466334,6.4629977 45.699665,6.0570017 46.003,5.707 C46.306335,5.3569983 46.672665,5.0793344 47.102,4.874 C47.531335,4.6686656 48.016664,4.566 48.558,4.566 C49.127336,4.566 49.638331,4.6849988 50.091,4.923 C50.543669,5.1610012 50.919332,5.475998 51.218,5.868 C51.516668,6.260002 51.733666,6.7103308 51.869,7.219 C52.004334,7.7276692 52.039334,8.252664 51.974,8.794 L46.654,8.794 L46.654,8.794 Z M50.378,7.744 C50.359333,7.4919987 50.305667,7.2493345 50.217,7.016 C50.128333,6.7826655 50.007001,6.5796675 49.853,6.407 C49.698999,6.2343325 49.512334,6.0943339 49.293,5.987 C49.073666,5.8796661 48.828668,5.826 48.558,5.826 C48.277999,5.826 48.023668,5.8749995 47.795,5.973 C47.566332,6.0710005 47.370334,6.2063325 47.207,6.379 C47.043666,6.5516675 46.913,6.7546655 46.815,6.988 C46.717,7.2213345 46.663333,7.473332 46.654,7.744 L50.378,7.744 L50.378,7.744 Z M54.396,9.676 C54.442667,10.142669 54.619998,10.4693324 54.928,10.656 C55.236002,10.8426676 55.604665,10.936 56.034,10.936 C56.183334,10.936 56.353666,10.9243335 56.545,10.901 C56.736334,10.8776666 56.915999,10.8333337 57.084,10.768 C57.252001,10.7026663 57.389666,10.6070006 57.497,10.481 C57.604334,10.3549994 57.653333,10.1893344 57.644,9.984 C57.634667,9.7786656 57.560001,9.6106673 57.42,9.48 C57.279999,9.3493327 57.100334,9.2443337 56.881,9.165 C56.661666,9.0856663 56.412001,9.0180003 56.132,8.962 C55.851999,8.9059997 55.567335,8.8453337 55.278,8.78 C54.979332,8.7146663 54.692335,8.6353338 54.417,8.542 C54.141665,8.4486662 53.894334,8.3226675 53.675,8.164 C53.455666,8.0053325 53.280667,7.8023346 53.15,7.555 C53.019333,7.3076654 52.954,7.0020018 52.954,6.638 C52.954,6.245998 53.049666,5.9170013 53.241,5.651 C53.432334,5.3849987 53.674999,5.1703342 53.969,5.007 C54.263001,4.8436659 54.589665,4.7293337 54.949,4.664 C55.308335,4.5986663 55.651332,4.566 55.978,4.566 C56.351335,4.566 56.708332,4.6056663 57.049,4.685 C57.389668,4.7643337 57.697665,4.8926658 57.973,5.07 C58.248335,5.2473342 58.476999,5.4783319 58.659,5.763 C58.841001,6.0476681 58.955333,6.3906647 59.002,6.792 L57.336,6.792 C57.261333,6.4093314 57.086335,6.1526673 56.811,6.022 C56.535665,5.8913327 56.220668,5.826 55.866,5.826 C55.753999,5.826 55.621001,5.8353332 55.467,5.854 C55.312999,5.8726668 55.168334,5.9076664 55.033,5.959 C54.897666,6.0103336 54.783334,6.0849995 54.69,6.183 C54.596666,6.2810005 54.55,6.4093325 54.55,6.568 C54.55,6.764001 54.617666,6.9226661 54.753,7.044 C54.888334,7.1653339 55.065666,7.2656663 55.285,7.345 C55.504334,7.4243337 55.753999,7.4919997 56.034,7.548 C56.314001,7.6040003 56.603332,7.6646663 56.902,7.73 C57.191335,7.7953337 57.475999,7.8746662 57.756,7.968 C58.036001,8.0613338 58.285666,8.1873325 58.505,8.346 C58.724334,8.5046675 58.901666,8.7053321 59.037,8.948 C59.172334,9.1906679 59.24,9.4893316 59.24,9.844 C59.24,10.2733355 59.142001,10.6373318 58.946,10.936 C58.749999,11.2346682 58.495668,11.4773324 58.183,11.664 C57.870332,11.8506676 57.522669,11.9859996 57.14,12.07 C56.757331,12.1540004 56.379335,12.196 56.006,12.196 C55.548664,12.196 55.126335,12.1446672 54.739,12.042 C54.351665,11.9393328 54.015668,11.783001 53.731,11.573 C53.446332,11.3629989 53.222334,11.1016682 53.059,10.789 C52.895666,10.4763318 52.809333,10.1053355 52.8,9.676 L54.396,9.676 L54.396,9.676 Z M66.52,10.39 C66.52,10.586001 66.545666,10.7259996 66.597,10.81 C66.648334,10.8940004 66.748666,10.936 66.898,10.936 L67.066,10.936 C67.131334,10.936 67.206,10.9266668 67.29,10.908 L67.29,12.014 C67.234,12.0326668 67.161667,12.0536666 67.073,12.077 C66.984333,12.1003334 66.893334,12.1213332 66.8,12.14 C66.706666,12.1586668 66.613334,12.1726666 66.52,12.182 C66.426666,12.1913334 66.347334,12.196 66.282,12.196 C65.955332,12.196 65.684668,12.1306673 65.47,12 C65.255332,11.8693327 65.115334,11.6406683 65.05,11.314 C64.732665,11.6220015 64.343002,11.8459993 63.881,11.986 C63.418998,12.1260007 62.973335,12.196 62.544,12.196 C62.217332,12.196 61.904668,12.1516671 61.606,12.063 C61.307332,11.9743329 61.043668,11.8436675 60.815,11.671 C60.586332,11.4983325 60.404334,11.2790013 60.269,11.013 C60.133666,10.7469987 60.066,10.4366684 60.066,10.082 C60.066,9.6339978 60.147666,9.2700014 60.311,8.99 C60.474334,8.7099986 60.688999,8.4906675 60.955,8.332 C61.221001,8.1733325 61.519665,8.0590004 61.851,7.989 C62.182335,7.9189997 62.515998,7.8653335 62.852,7.828 C63.141335,7.7719997 63.416665,7.7323334 63.678,7.709 C63.939335,7.6856666 64.170332,7.6460003 64.371,7.59 C64.571668,7.5339997 64.730333,7.4476672 64.847,7.331 C64.963667,7.2143327 65.022,7.0393345 65.022,6.806 C65.022,6.6006656 64.973,6.4326673 64.875,6.302 C64.777,6.1713327 64.655667,6.0710004 64.511,6.001 C64.366333,5.9309997 64.205334,5.8843334 64.028,5.861 C63.850666,5.8376666 63.682667,5.826 63.524,5.826 C63.075998,5.826 62.707335,5.9193324 62.418,6.106 C62.128665,6.2926676 61.965334,6.581998 61.928,6.974 L60.332,6.974 C60.36,6.507331 60.471999,6.1200015 60.668,5.812 C60.864001,5.5039985 61.113665,5.2566676 61.417,5.07 C61.720335,4.8833324 62.063331,4.752667 62.446,4.678 C62.828669,4.603333 63.220665,4.566 63.622,4.566 C63.976668,4.566 64.326665,4.603333 64.672,4.678 C65.017335,4.752667 65.327665,4.8739992 65.603,5.042 C65.878335,5.2100008 66.099999,5.4269987 66.268,5.693 C66.436001,5.9590013 66.52,6.2833314 66.52,6.666 L66.52,10.39 L66.52,10.39 Z M64.924,8.374 C64.681332,8.5326675 64.382668,8.6283332 64.028,8.661 C63.673332,8.6936668 63.318668,8.7426663 62.964,8.808 C62.795999,8.8360001 62.632667,8.8756664 62.474,8.927 C62.315333,8.9783336 62.175334,9.0483329 62.054,9.137 C61.932666,9.2256671 61.837,9.3423326 61.767,9.487 C61.697,9.6316674 61.662,9.8066656 61.662,10.012 C61.662,10.1893342 61.713333,10.3386661 61.816,10.46 C61.918667,10.5813339 62.042333,10.6769996 62.187,10.747 C62.331667,10.8170004 62.490332,10.8659999 62.663,10.894 C62.835668,10.9220001 62.991999,10.936 63.132,10.936 C63.309334,10.936 63.500666,10.9126669 63.706,10.866 C63.911334,10.8193331 64.104999,10.7400006 64.287,10.628 C64.469001,10.5159994 64.620666,10.3736675 64.742,10.201 C64.863334,10.0283325 64.924,9.8160013 64.924,9.564 L64.924,8.374 L64.924,8.374 Z M67.528,4.762 L68.718,4.762 L68.718,4.16 C68.718,3.7026644 68.773999,3.3316681 68.886,3.047 C68.998001,2.7623319 69.147332,2.5430008 69.334,2.389 C69.520668,2.2349992 69.732999,2.1323336 69.971,2.081 C70.209001,2.0296664 70.458665,2.004 70.72,2.004 C71.233336,2.004 71.606666,2.0366663 71.84,2.102 L71.84,3.348 C71.737333,3.3199999 71.627667,3.2990001 71.511,3.285 C71.394333,3.2709999 71.256667,3.264 71.098,3.264 C70.883332,3.264 70.699001,3.3153328 70.545,3.418 C70.390999,3.5206672 70.314,3.7213318 70.314,4.02 L70.314,4.762 L71.672,4.762 L71.672,5.952 L70.314,5.952 L70.314,12 L68.718,12 L68.718,5.952 L67.528,5.952 L67.528,4.762 L67.528,4.762 Z M73.898,8.794 C73.898,9.0740014 73.937666,9.3446654 74.017,9.606 C74.096334,9.8673346 74.215333,10.095999 74.374,10.292 C74.532667,10.488001 74.733332,10.6443328 74.976,10.761 C75.218668,10.8776673 75.507998,10.936 75.844,10.936 C76.310669,10.936 76.686332,10.8356677 76.971,10.635 C77.255668,10.4343323 77.467999,10.1333353 77.608,9.732 L79.12,9.732 C79.036,10.124002 78.891334,10.4739985 78.686,10.782 C78.480666,11.0900015 78.233335,11.3489989 77.944,11.559 C77.654665,11.769001 77.330335,11.9276661 76.971,12.035 C76.611665,12.1423339 76.236002,12.196 75.844,12.196 C75.274664,12.196 74.770669,12.1026676 74.332,11.916 C73.893331,11.7293324 73.522335,11.4680017 73.219,11.132 C72.915665,10.7959983 72.687001,10.394669 72.533,9.928 C72.378999,9.461331 72.302,8.9480028 72.302,8.388 C72.302,7.8746641 72.383666,7.3870023 72.547,6.925 C72.710334,6.4629977 72.943665,6.0570017 73.247,5.707 C73.550335,5.3569983 73.916665,5.0793344 74.346,4.874 C74.775335,4.6686656 75.260664,4.566 75.802,4.566 C76.371336,4.566 76.882331,4.6849988 77.335,4.923 C77.787669,5.1610012 78.163332,5.475998 78.462,5.868 C78.760668,6.260002 78.977666,6.7103308 79.113,7.219 C79.248334,7.7276692 79.283334,8.252664 79.218,8.794 L73.898,8.794 L73.898,8.794 Z M77.622,7.744 C77.603333,7.4919987 77.549667,7.2493345 77.461,7.016 C77.372333,6.7826655 77.251001,6.5796675 77.097,6.407 C76.942999,6.2343325 76.756334,6.0943339 76.537,5.987 C76.317666,5.8796661 76.072668,5.826 75.802,5.826 C75.521999,5.826 75.267668,5.8749995 75.039,5.973 C74.810332,6.0710005 74.614334,6.2063325 74.451,6.379 C74.287666,6.5516675 74.157,6.7546655 74.059,6.988 C73.961,7.2213345 73.907333,7.473332 73.898,7.744 L77.622,7.744 L77.622,7.744 Z"/>
    </g>
</svg>