<?xml version="1.0"?>
<svg width="16px" height="16px" viewBox="0 0 16 16" version="1.1" xmlns="http://www.w3.org/2000/svg" xmlns:xlink="http://www.w3.org/1999/xlink">
    <g fill="#899CA9" class="svg-working">
        <path d="M13.134849,14.134849 C14.8862895,12.6673409 16,10.4637311 16,8 C16,3.58172179 12.4182782,-8.8817842e-16 8,-8.8817842e-16 C3.58172178,-8.8817842e-16 0,3.58172179 0,8 C0,11.3573778 2.06816958,14.2317084 5,15.4184831 L5,12.0003663 C3.78555328,11.08816 3,9.63581797 3,8 C3,5.23857612 5.23857611,3 8,3 C10.7614239,3 13,5.23857612 13,8 C13,9.63572407 12.2145369,11.0879932 11.0002092,12.0002092 L8.99999999,9.99999997 L8.99999999,16 L15,16 L13.134849,14.134849 L13.134849,14.134849 Z" class="svg-shape"/>
    </g>
</svg>