<?xml version="1.0" encoding="UTF-8" standalone="no"?>
<svg width="12px" height="12px" viewBox="0 0 12 12" version="1.1" xmlns="http://www.w3.org/2000/svg" xmlns:xlink="http://www.w3.org/1999/xlink" xmlns:sketch="http://www.bohemiancoding.com/sketch/ns">
    <!-- Generator: Sketch 3.0.4 (8053) - http://www.bohemiancoding.com/sketch -->
    <title>working-mini</title>
    <desc>Created with Sketch.</desc>
    <defs></defs>
    <g id="Page-1" stroke="none" stroke-width="1" fill="none" fill-rule="evenodd" sketch:type="MSPage">
        <g id="working-mini" sketch:type="MSArtboardGroup" fill="#899CA9">
            <path d="M12,6 C12,2.68629134 9.31370865,0 6,0 C2.68629133,0 0,2.68629134 0,6 C0,8.51803333 1.55112719,10.6737813 4,12 L4,9 C2.83916496,8.31611998 2.25,7.22686348 2,6 C2.25,3.92893209 3.92893208,2.25 6,2 C8.07106793,2.25 9.75,3.92893209 10,6 C9.75,7.22679305 9.16090268,8.31599488 8,9 L7,7 L7,12 L11,12 L10,11 C11.1647171,9.50050565 12,7.8477983 12,6 Z" id="shape" sketch:type="MSShapeGroup"></path>
        </g>
    </g>
</svg>