<svg xmlns="http://www.w3.org/2000/svg" xmlns:xlink="http://www.w3.org/1999/xlink" viewBox="0 0 740 160" enable-background="new 0 0 740 160"><g><g fill="#fff"><path d="M240.8 52.9v-11.2h11.1v58.6c0 6.6 1.5 9.4 5.7 9.4 1.2 0 2.5-.1 3.9-.3v8.4c-1.8.8-4.2 1.2-7.1 1.2-3.3 0-6-.8-7.9-2.1-2.8-2.2-4.7-5.8-5.1-10.8-5.7 8.8-14.8 13.3-27.4 13.3-10.6 0-19.8-3.8-27.1-11.4s-11.1-17.2-11.1-28.6c0-11.4 3.8-20.8 11.1-28.5 7.3-7.7 16.5-11.5 27.1-11.5 13.6 0 22.5 5.9 26.8 13.5zm-6.7 47.9c5.4-5.7 8.1-12.8 8.1-21.3s-2.7-15.6-8.1-21.1c-5.2-5.7-12-8.5-20.1-8.5-7.8 0-14.2 2.8-19.5 8.5-5.1 5.5-7.6 12.6-7.6 21.1 0 8.5 2.5 15.6 7.6 21.3 5.2 5.5 11.7 8.4 19.5 8.4 8.1 0 14.8-2.9 20.1-8.4zM329 50.8l-6.8 7.8c-5.7-5.8-13-8.8-21.9-8.8-8.4 0-15.3 2.8-20.8 8.5-5.5 5.5-8.2 12.6-8.2 21.1 0 8.5 2.7 15.6 8.2 21.3 5.5 5.5 12.4 8.4 20.8 8.4 8.8 0 16.2-3 21.9-8.8l6.8 7.8c-7.3 7.6-16.9 11.4-28.6 11.4-11.2 0-20.7-3.8-28.5-11.4-7.8-7.6-11.7-17.2-11.7-28.6 0-11.4 3.9-20.8 11.7-28.5 7.8-7.7 17.2-11.5 28.5-11.5 11.7-.1 21.3 3.7 28.6 11.3zM342.4 52h-8.8v-10.3h8.8v-29h11.1v28.9h17.5v10.4h-17.5v44.1c0 9.6 3.2 13 10.5 13 2.8 0 5.1-.2 7-.5v9.6c-1.7.8-4.5 1.2-8.4 1.2-13.5 0-20.2-7.8-20.2-23.4v-44zM381 27c-3-3-3-7.8 0-10.7 3-3 7.5-3 10.5 0 3 2.9 3 7.7 0 10.7-3 2.8-7.5 2.8-10.5 0zm-.3 14.7h11.1v59.4c0 5.5 1.5 7.9 5.7 7.9 1.2 0 2.6-.1 3.9-.3v9.1c-1.8.8-4.2 1.2-7 1.2-9.1 0-13.6-5.4-13.6-16v-61.3zM431.3 117.3l-32.4-75.6h11.7l24.4 57.6 24.4-57.6h11.8l-32.2 75.6h-7.7zM531.7 52.9v-11.2h11.1v58.6c0 6.6 1.5 9.4 5.7 9.4 1.2 0 2.5-.1 3.9-.3v8.4c-1.8.8-4.2 1.2-7 1.2-3.3 0-6-.8-7.9-2.1-2.8-2.2-4.6-5.8-5.1-10.8-5.7 8.8-14.8 13.3-27.4 13.3-10.6 0-19.8-3.8-27.1-11.4s-11.1-17.2-11.1-28.6c0-11.4 3.8-20.8 11.1-28.5 7.3-7.7 16.5-11.5 27.1-11.5 13.5 0 22.3 5.9 26.7 13.5zm-6.8 47.9c5.4-5.7 8.1-12.8 8.1-21.3s-2.7-15.6-8.1-21.1c-5.2-5.7-12-8.5-20.1-8.5-7.8 0-14.2 2.8-19.5 8.5-5.1 5.5-7.6 12.6-7.6 21.1 0 8.5 2.5 15.6 7.6 21.3 5.2 5.5 11.7 8.4 19.5 8.4 8.1 0 14.9-2.9 20.1-8.4zM562.1 52h-8.8v-10.3h8.8v-29h11.1v28.9h17.5v10.4h-17.5v44.1c0 9.6 3.1 13 10.5 13 2.9 0 5.1-.2 7-.5v9.6c-1.6.8-4.5 1.2-8.4 1.2-13.5 0-20.2-7.8-20.2-23.4v-44zM591.2 79.5c0-11.4 3.9-20.8 11.7-28.5 7.8-7.7 17.2-11.5 28.5-11.5 11.2 0 20.7 3.9 28.5 11.5 7.8 7.6 11.7 17.1 11.7 28.5 0 11.4-3.9 21-11.7 28.6s-17.2 11.4-28.5 11.4c-11.2 0-20.7-3.8-28.5-11.4s-11.7-17.2-11.7-28.6zm11.1 0c0 8.5 2.7 15.6 8.2 21.3 5.5 5.5 12.5 8.4 20.8 8.4s15.3-2.8 20.8-8.4c5.5-5.7 8.2-12.8 8.2-21.3s-2.7-15.6-8.2-21.1c-5.5-5.7-12.4-8.5-20.8-8.5s-15.3 2.8-20.8 8.5c-5.5 5.5-8.2 12.5-8.2 21.1zM681.2 117.3v-75.6h11.1v12.7c4-8.4 12.3-13.9 23.2-13.9 1.6 0 3.3.2 4.6.3v12c-1.9-.5-4.5-.8-7.5-.8-11.8 0-20.4 8.7-20.4 21.3v43.9h-11z"/></g><defs><circle id="a" cx="81" cy="80" r="75"/></defs><clipPath id="b"><use xlink:href="#a" overflow="visible"/></clipPath><g clip-path="url(#b)"><path fill="#15A9CE" d="M71.7 87.7h146.2c4.8 0 8.7-3.9 8.7-8.7 0-4.8-3.9-8.7-8.7-8.7h-146.2c-4.8 0-8.7 3.9-8.7 8.7 0 4.8 3.9 8.7 8.7 8.7z"/><path fill="#92D13D" d="M89.7 59.3h146.2c4.8 0 8.7-3.9 8.7-8.7 0-4.8-3.9-8.7-8.7-8.7h-146.2c-4.8 0-8.7 3.9-8.7 8.7 0 4.9 3.9 8.7 8.7 8.7z"/><path fill="#DE3423" d="M53.7 116h146.2c4.8 0 8.7-3.9 8.7-8.7 0-4.8-3.9-8.7-8.7-8.7h-146.2c-4.8 0-8.7 3.9-8.7 8.7 0 4.8 3.9 8.7 8.7 8.7z"/></g><path fill="#fff" d="M81 4.5c-41.7 0-75.5 33.9-75.5 75.5s33.9 75.5 75.5 75.5 75.5-33.9 75.5-75.5-33.9-75.5-75.5-75.5zm0 142c-36.7 0-66.5-29.8-66.5-66.5s29.8-66.5 66.5-66.5 66.5 29.8 66.5 66.5-29.9 66.5-66.5 66.5z"/></g></svg>